<?xml version="1.0" encoding="utf-8" standalone="no"?>
<!DOCTYPE svg PUBLIC "-//W3C//DTD SVG 1.1//EN"
  "http://www.w3.org/Graphics/SVG/1.1/DTD/svg11.dtd">
<svg xmlns:xlink="http://www.w3.org/1999/xlink" width="375.629688pt" height="268.96125pt" viewBox="0 0 375.629688 268.96125" xmlns="http://www.w3.org/2000/svg" version="1.1">
 <metadata>
  <rdf:RDF xmlns:dc="http://purl.org/dc/elements/1.1/" xmlns:cc="http://creativecommons.org/ns#" xmlns:rdf="http://www.w3.org/1999/02/22-rdf-syntax-ns#">
   <cc:Work>
    <dc:type rdf:resource="http://purl.org/dc/dcmitype/StillImage"/>
    <dc:date>2023-11-08T14:28:50.147813</dc:date>
    <dc:format>image/svg+xml</dc:format>
    <dc:creator>
     <cc:Agent>
      <dc:title>Matplotlib v3.7.2, https://matplotlib.org/</dc:title>
     </cc:Agent>
    </dc:creator>
   </cc:Work>
  </rdf:RDF>
 </metadata>
 <defs>
  <style type="text/css">*{stroke-linejoin: round; stroke-linecap: butt}</style>
 </defs>
 <g id="figure_1">
  <g id="patch_1">
   <path d="M 0 268.96125 
L 375.629688 268.96125 
L 375.629688 0 
L 0 0 
z
" style="fill: #ffffff"/>
  </g>
  <g id="axes_1">
   <g id="patch_2">
    <path d="M 33.629688 244.51125 
L 368.429688 244.51125 
L 368.429688 22.75125 
L 33.629688 22.75125 
z
" style="fill: #ffffff"/>
   </g>
   <g id="matplotlib.axis_1">
    <g id="xtick_1">
     <g id="line2d_1">
      <path d="M 48.847869 244.51125 
L 48.847869 22.75125 
" clip-path="url(#pd6f7aef6cd)" style="fill: none; stroke: #b0b0b0; stroke-width: 0.8; stroke-linecap: square"/>
     </g>
     <g id="line2d_2">
      <defs>
       <path id="m28798a95ed" d="M 0 0 
L 0 3.5 
" style="stroke: #000000; stroke-width: 0.8"/>
      </defs>
      <g>
       <use xlink:href="#m28798a95ed" x="48.847869" y="244.51125" style="stroke: #000000; stroke-width: 0.8"/>
      </g>
     </g>
     <g id="text_1">
      <!-- 0 -->
      <g transform="translate(46.072869 259.470625) scale(0.1 -0.1)">
       <defs>
        <path id="SourceHanSansSC-Regular-30" d="M 1779 -83 
C 2669 -83 3238 723 3238 2362 
C 3238 3987 2669 4774 1779 4774 
C 883 4774 320 3987 320 2362 
C 320 723 883 -83 1779 -83 
z
M 1779 390 
C 1248 390 883 986 883 2362 
C 883 3731 1248 4314 1779 4314 
C 2310 4314 2675 3731 2675 2362 
C 2675 986 2310 390 1779 390 
z
" transform="scale(0.015625)"/>
       </defs>
       <use xlink:href="#SourceHanSansSC-Regular-30"/>
      </g>
     </g>
    </g>
    <g id="xtick_2">
     <g id="line2d_3">
      <path d="M 109.720597 244.51125 
L 109.720597 22.75125 
" clip-path="url(#pd6f7aef6cd)" style="fill: none; stroke: #b0b0b0; stroke-width: 0.8; stroke-linecap: square"/>
     </g>
     <g id="line2d_4">
      <g>
       <use xlink:href="#m28798a95ed" x="109.720597" y="244.51125" style="stroke: #000000; stroke-width: 0.8"/>
      </g>
     </g>
     <g id="text_2">
      <!-- 2 -->
      <g transform="translate(106.945597 259.470625) scale(0.1 -0.1)">
       <defs>
        <path id="SourceHanSansSC-Regular-32" d="M 282 0 
L 3232 0 
L 3232 506 
L 1933 506 
C 1696 506 1408 480 1165 461 
C 2266 1504 3008 2458 3008 3398 
C 3008 4230 2477 4774 1638 4774 
C 1043 4774 634 4506 256 4090 
L 595 3757 
C 858 4070 1184 4301 1568 4301 
C 2150 4301 2432 3910 2432 3373 
C 2432 2566 1754 1632 282 346 
L 282 0 
z
" transform="scale(0.015625)"/>
       </defs>
       <use xlink:href="#SourceHanSansSC-Regular-32"/>
      </g>
     </g>
    </g>
    <g id="xtick_3">
     <g id="line2d_5">
      <path d="M 170.593324 244.51125 
L 170.593324 22.75125 
" clip-path="url(#pd6f7aef6cd)" style="fill: none; stroke: #b0b0b0; stroke-width: 0.8; stroke-linecap: square"/>
     </g>
     <g id="line2d_6">
      <g>
       <use xlink:href="#m28798a95ed" x="170.593324" y="244.51125" style="stroke: #000000; stroke-width: 0.8"/>
      </g>
     </g>
     <g id="text_3">
      <!-- 4 -->
      <g transform="translate(167.818324 259.470625) scale(0.1 -0.1)">
       <defs>
        <path id="SourceHanSansSC-Regular-34" d="M 2176 0 
L 2726 0 
L 2726 1293 
L 3354 1293 
L 3354 1760 
L 2726 1760 
L 2726 4691 
L 2080 4691 
L 128 1677 
L 128 1293 
L 2176 1293 
L 2176 0 
z
M 2176 1760 
L 736 1760 
L 1805 3360 
C 1939 3590 2067 3827 2182 4051 
L 2208 4051 
C 2195 3814 2176 3430 2176 3200 
L 2176 1760 
z
" transform="scale(0.015625)"/>
       </defs>
       <use xlink:href="#SourceHanSansSC-Regular-34"/>
      </g>
     </g>
    </g>
    <g id="xtick_4">
     <g id="line2d_7">
      <path d="M 231.466051 244.51125 
L 231.466051 22.75125 
" clip-path="url(#pd6f7aef6cd)" style="fill: none; stroke: #b0b0b0; stroke-width: 0.8; stroke-linecap: square"/>
     </g>
     <g id="line2d_8">
      <g>
       <use xlink:href="#m28798a95ed" x="231.466051" y="244.51125" style="stroke: #000000; stroke-width: 0.8"/>
      </g>
     </g>
     <g id="text_4">
      <!-- 6 -->
      <g transform="translate(228.691051 259.470625) scale(0.1 -0.1)">
       <defs>
        <path id="SourceHanSansSC-Regular-36" d="M 1926 -83 
C 2656 -83 3277 531 3277 1440 
C 3277 2426 2765 2912 1971 2912 
C 1606 2912 1197 2701 909 2349 
C 934 3802 1466 4294 2118 4294 
C 2400 4294 2682 4154 2861 3936 
L 3194 4294 
C 2931 4576 2579 4774 2093 4774 
C 1184 4774 358 4077 358 2240 
C 358 691 1030 -83 1926 -83 
z
M 922 1882 
C 1229 2317 1587 2477 1875 2477 
C 2445 2477 2720 2074 2720 1440 
C 2720 800 2374 378 1926 378 
C 1338 378 986 909 922 1882 
z
" transform="scale(0.015625)"/>
       </defs>
       <use xlink:href="#SourceHanSansSC-Regular-36"/>
      </g>
     </g>
    </g>
    <g id="xtick_5">
     <g id="line2d_9">
      <path d="M 292.338778 244.51125 
L 292.338778 22.75125 
" clip-path="url(#pd6f7aef6cd)" style="fill: none; stroke: #b0b0b0; stroke-width: 0.8; stroke-linecap: square"/>
     </g>
     <g id="line2d_10">
      <g>
       <use xlink:href="#m28798a95ed" x="292.338778" y="244.51125" style="stroke: #000000; stroke-width: 0.8"/>
      </g>
     </g>
     <g id="text_5">
      <!-- 8 -->
      <g transform="translate(289.563778 259.470625) scale(0.1 -0.1)">
       <defs>
        <path id="SourceHanSansSC-Regular-38" d="M 1792 -83 
C 2669 -83 3258 448 3258 1126 
C 3258 1773 2880 2125 2470 2362 
L 2470 2394 
C 2746 2611 3091 3034 3091 3526 
C 3091 4250 2605 4762 1805 4762 
C 1075 4762 518 4282 518 3571 
C 518 3078 813 2726 1152 2490 
L 1152 2464 
C 723 2234 294 1792 294 1165 
C 294 442 922 -83 1792 -83 
z
M 2112 2547 
C 1555 2765 1050 3014 1050 3571 
C 1050 4026 1363 4326 1798 4326 
C 2298 4326 2592 3962 2592 3494 
C 2592 3149 2426 2829 2112 2547 
z
M 1798 352 
C 1235 352 813 717 813 1216 
C 813 1664 1082 2035 1459 2278 
C 2125 2010 2701 1779 2701 1146 
C 2701 678 2342 352 1798 352 
z
" transform="scale(0.015625)"/>
       </defs>
       <use xlink:href="#SourceHanSansSC-Regular-38"/>
      </g>
     </g>
    </g>
    <g id="xtick_6">
     <g id="line2d_11">
      <path d="M 353.211506 244.51125 
L 353.211506 22.75125 
" clip-path="url(#pd6f7aef6cd)" style="fill: none; stroke: #b0b0b0; stroke-width: 0.8; stroke-linecap: square"/>
     </g>
     <g id="line2d_12">
      <g>
       <use xlink:href="#m28798a95ed" x="353.211506" y="244.51125" style="stroke: #000000; stroke-width: 0.8"/>
      </g>
     </g>
     <g id="text_6">
      <!-- 10 -->
      <g transform="translate(347.661506 259.470625) scale(0.1 -0.1)">
       <defs>
        <path id="SourceHanSansSC-Regular-31" d="M 563 0 
L 3136 0 
L 3136 486 
L 2195 486 
L 2195 4691 
L 1747 4691 
C 1491 4544 1190 4435 774 4358 
L 774 3987 
L 1613 3987 
L 1613 486 
L 563 486 
L 563 0 
z
" transform="scale(0.015625)"/>
       </defs>
       <use xlink:href="#SourceHanSansSC-Regular-31"/>
       <use xlink:href="#SourceHanSansSC-Regular-30" x="55.499985"/>
      </g>
     </g>
    </g>
   </g>
   <g id="matplotlib.axis_2">
    <g id="ytick_1">
     <g id="line2d_13">
      <path d="M 33.629688 234.040701 
L 368.429688 234.040701 
" clip-path="url(#pd6f7aef6cd)" style="fill: none; stroke: #b0b0b0; stroke-width: 0.8; stroke-linecap: square"/>
     </g>
     <g id="line2d_14">
      <defs>
       <path id="m5a3385d09b" d="M 0 0 
L -3.5 0 
" style="stroke: #000000; stroke-width: 0.8"/>
      </defs>
      <g>
       <use xlink:href="#m5a3385d09b" x="33.629688" y="234.040701" style="stroke: #000000; stroke-width: 0.8"/>
      </g>
     </g>
     <g id="text_7">
      <!-- −0.4 -->
      <g transform="translate(7.2 238.020388) scale(0.1 -0.1)">
       <defs>
        <path id="SourceHanSansSC-Regular-2212" d="M 243 2144 
L 3315 2144 
L 3315 2579 
L 243 2579 
L 243 2144 
z
" transform="scale(0.015625)"/>
        <path id="SourceHanSansSC-Regular-2e" d="M 890 -83 
C 1120 -83 1312 96 1312 358 
C 1312 627 1120 806 890 806 
C 653 806 467 627 467 358 
C 467 96 653 -83 890 -83 
z
" transform="scale(0.015625)"/>
       </defs>
       <use xlink:href="#SourceHanSansSC-Regular-2212"/>
       <use xlink:href="#SourceHanSansSC-Regular-30" x="55.499985"/>
       <use xlink:href="#SourceHanSansSC-Regular-2e" x="110.999969"/>
       <use xlink:href="#SourceHanSansSC-Regular-34" x="138.799957"/>
      </g>
     </g>
    </g>
    <g id="ytick_2">
     <g id="line2d_15">
      <path d="M 33.629688 205.296493 
L 368.429688 205.296493 
" clip-path="url(#pd6f7aef6cd)" style="fill: none; stroke: #b0b0b0; stroke-width: 0.8; stroke-linecap: square"/>
     </g>
     <g id="line2d_16">
      <g>
       <use xlink:href="#m5a3385d09b" x="33.629688" y="205.296493" style="stroke: #000000; stroke-width: 0.8"/>
      </g>
     </g>
     <g id="text_8">
      <!-- −0.2 -->
      <g transform="translate(7.2 209.276181) scale(0.1 -0.1)">
       <use xlink:href="#SourceHanSansSC-Regular-2212"/>
       <use xlink:href="#SourceHanSansSC-Regular-30" x="55.499985"/>
       <use xlink:href="#SourceHanSansSC-Regular-2e" x="110.999969"/>
       <use xlink:href="#SourceHanSansSC-Regular-32" x="138.799957"/>
      </g>
     </g>
    </g>
    <g id="ytick_3">
     <g id="line2d_17">
      <path d="M 33.629688 176.552286 
L 368.429688 176.552286 
" clip-path="url(#pd6f7aef6cd)" style="fill: none; stroke: #b0b0b0; stroke-width: 0.8; stroke-linecap: square"/>
     </g>
     <g id="line2d_18">
      <g>
       <use xlink:href="#m5a3385d09b" x="33.629688" y="176.552286" style="stroke: #000000; stroke-width: 0.8"/>
      </g>
     </g>
     <g id="text_9">
      <!-- 0.0 -->
      <g transform="translate(12.75 180.531974) scale(0.1 -0.1)">
       <use xlink:href="#SourceHanSansSC-Regular-30"/>
       <use xlink:href="#SourceHanSansSC-Regular-2e" x="55.499985"/>
       <use xlink:href="#SourceHanSansSC-Regular-30" x="83.299973"/>
      </g>
     </g>
    </g>
    <g id="ytick_4">
     <g id="line2d_19">
      <path d="M 33.629688 147.808079 
L 368.429688 147.808079 
" clip-path="url(#pd6f7aef6cd)" style="fill: none; stroke: #b0b0b0; stroke-width: 0.8; stroke-linecap: square"/>
     </g>
     <g id="line2d_20">
      <g>
       <use xlink:href="#m5a3385d09b" x="33.629688" y="147.808079" style="stroke: #000000; stroke-width: 0.8"/>
      </g>
     </g>
     <g id="text_10">
      <!-- 0.2 -->
      <g transform="translate(12.75 151.787766) scale(0.1 -0.1)">
       <use xlink:href="#SourceHanSansSC-Regular-30"/>
       <use xlink:href="#SourceHanSansSC-Regular-2e" x="55.499985"/>
       <use xlink:href="#SourceHanSansSC-Regular-32" x="83.299973"/>
      </g>
     </g>
    </g>
    <g id="ytick_5">
     <g id="line2d_21">
      <path d="M 33.629688 119.063872 
L 368.429688 119.063872 
" clip-path="url(#pd6f7aef6cd)" style="fill: none; stroke: #b0b0b0; stroke-width: 0.8; stroke-linecap: square"/>
     </g>
     <g id="line2d_22">
      <g>
       <use xlink:href="#m5a3385d09b" x="33.629688" y="119.063872" style="stroke: #000000; stroke-width: 0.8"/>
      </g>
     </g>
     <g id="text_11">
      <!-- 0.4 -->
      <g transform="translate(12.75 123.043559) scale(0.1 -0.1)">
       <use xlink:href="#SourceHanSansSC-Regular-30"/>
       <use xlink:href="#SourceHanSansSC-Regular-2e" x="55.499985"/>
       <use xlink:href="#SourceHanSansSC-Regular-34" x="83.299973"/>
      </g>
     </g>
    </g>
    <g id="ytick_6">
     <g id="line2d_23">
      <path d="M 33.629688 90.319664 
L 368.429688 90.319664 
" clip-path="url(#pd6f7aef6cd)" style="fill: none; stroke: #b0b0b0; stroke-width: 0.8; stroke-linecap: square"/>
     </g>
     <g id="line2d_24">
      <g>
       <use xlink:href="#m5a3385d09b" x="33.629688" y="90.319664" style="stroke: #000000; stroke-width: 0.8"/>
      </g>
     </g>
     <g id="text_12">
      <!-- 0.6 -->
      <g transform="translate(12.75 94.299352) scale(0.1 -0.1)">
       <use xlink:href="#SourceHanSansSC-Regular-30"/>
       <use xlink:href="#SourceHanSansSC-Regular-2e" x="55.499985"/>
       <use xlink:href="#SourceHanSansSC-Regular-36" x="83.299973"/>
      </g>
     </g>
    </g>
    <g id="ytick_7">
     <g id="line2d_25">
      <path d="M 33.629688 61.575457 
L 368.429688 61.575457 
" clip-path="url(#pd6f7aef6cd)" style="fill: none; stroke: #b0b0b0; stroke-width: 0.8; stroke-linecap: square"/>
     </g>
     <g id="line2d_26">
      <g>
       <use xlink:href="#m5a3385d09b" x="33.629688" y="61.575457" style="stroke: #000000; stroke-width: 0.8"/>
      </g>
     </g>
     <g id="text_13">
      <!-- 0.8 -->
      <g transform="translate(12.75 65.555145) scale(0.1 -0.1)">
       <use xlink:href="#SourceHanSansSC-Regular-30"/>
       <use xlink:href="#SourceHanSansSC-Regular-2e" x="55.499985"/>
       <use xlink:href="#SourceHanSansSC-Regular-38" x="83.299973"/>
      </g>
     </g>
    </g>
    <g id="ytick_8">
     <g id="line2d_27">
      <path d="M 33.629688 32.83125 
L 368.429688 32.83125 
" clip-path="url(#pd6f7aef6cd)" style="fill: none; stroke: #b0b0b0; stroke-width: 0.8; stroke-linecap: square"/>
     </g>
     <g id="line2d_28">
      <g>
       <use xlink:href="#m5a3385d09b" x="33.629688" y="32.83125" style="stroke: #000000; stroke-width: 0.8"/>
      </g>
     </g>
     <g id="text_14">
      <!-- 1.0 -->
      <g transform="translate(12.75 36.810938) scale(0.1 -0.1)">
       <use xlink:href="#SourceHanSansSC-Regular-31"/>
       <use xlink:href="#SourceHanSansSC-Regular-2e" x="55.499985"/>
       <use xlink:href="#SourceHanSansSC-Regular-30" x="83.299973"/>
      </g>
     </g>
    </g>
   </g>
   <g id="line2d_29">
    <path d="M 48.847869 32.83125 
L 50.883746 32.991965 
L 52.919624 33.473571 
L 54.955501 34.274453 
L 56.991378 35.391924 
L 59.027255 36.82224 
L 61.063132 38.560608 
L 63.099009 40.601208 
L 65.134887 42.937213 
L 67.170764 45.560813 
L 69.206641 48.463249 
L 72.260457 53.318302 
L 75.314272 58.742387 
L 78.368088 64.694981 
L 81.421904 71.131731 
L 84.47572 78.004822 
L 88.547474 87.75938 
L 92.619228 98.071226 
L 97.708921 111.539911 
L 106.870369 136.579716 
L 115.013877 158.599665 
L 120.10357 171.739536 
L 124.175324 181.70295 
L 128.247079 191.052084 
L 131.300895 197.596576 
L 134.35471 203.695184 
L 137.408526 209.311505 
L 140.462342 214.413448 
L 143.516158 218.973465 
L 145.552035 221.700938 
L 147.587912 224.171751 
L 149.623789 226.38132 
L 151.659666 228.326054 
L 153.695543 230.003355 
L 155.731421 231.411627 
L 157.767298 232.550272 
L 159.803175 233.419687 
L 161.839052 234.021257 
L 163.874929 234.357339 
L 165.910806 234.43125 
L 167.946684 234.247245 
L 169.982561 233.810495 
L 172.018438 233.127063 
L 174.054315 232.203869 
L 176.090192 231.048664 
L 178.126069 229.669987 
L 180.161947 228.077132 
L 182.197824 226.280104 
L 185.251639 223.225255 
L 188.305455 219.773761 
L 191.359271 215.96698 
L 194.413087 211.848648 
L 198.484841 205.952124 
L 203.574534 198.088643 
L 210.700104 186.565238 
L 219.861551 171.77829 
L 224.951244 164.002651 
L 229.022999 158.181373 
L 233.094753 152.814829 
L 236.148569 149.13815 
L 239.202384 145.794457 
L 242.2562 142.810906 
L 245.310016 140.210835 
L 248.363832 138.0136 
L 250.399709 136.780276 
L 252.435586 135.736338 
L 254.471463 134.884433 
L 256.50734 134.226366 
L 258.543217 133.763102 
L 260.579095 133.494768 
L 262.614972 133.420659 
L 264.650849 133.539249 
L 266.686726 133.848201 
L 268.722603 134.344388 
L 270.75848 135.023911 
L 272.794358 135.88212 
L 274.830235 136.913639 
L 277.884051 138.772415 
L 280.937866 140.98407 
L 283.991682 143.522246 
L 287.045498 146.357766 
L 290.099314 149.458946 
L 294.171068 153.948309 
L 298.242822 158.764391 
L 304.350454 166.404755 
L 319.619532 185.795154 
L 323.691287 190.588553 
L 327.763041 195.062467 
L 331.834795 199.143149 
L 334.888611 201.90564 
L 337.942427 204.385127 
L 340.996243 206.560069 
L 344.050058 208.412126 
L 347.103874 209.926305 
L 350.15769 211.091071 
L 352.193567 211.669368 
L 353.211506 211.898429 
L 353.211506 211.898429 
" clip-path="url(#pd6f7aef6cd)" style="fill: none; stroke-dasharray: 9.6,2.4,1.5,2.4; stroke-dashoffset: 0; stroke: #000000; stroke-width: 1.5"/>
   </g>
   <g id="line2d_30">
    <path d="M 48.847869 176.552286 
L 58.009317 155.166078 
L 63.099009 143.818921 
L 67.170764 135.222169 
L 71.242518 127.176636 
L 74.296334 121.568079 
L 77.35015 116.370165 
L 80.403965 111.620473 
L 83.457781 107.35285 
L 86.511597 103.597131 
L 88.547474 101.390529 
L 90.583351 99.429394 
L 92.619228 97.719314 
L 94.655106 96.264955 
L 96.690983 95.070045 
L 98.72686 94.137362 
L 100.762737 93.468731 
L 102.798614 93.065011 
L 104.834491 92.9261 
L 106.870369 93.050939 
L 108.906246 93.437514 
L 110.942123 94.082869 
L 112.978 94.98312 
L 115.013877 96.133472 
L 117.049754 97.528241 
L 119.085632 99.160875 
L 121.121509 101.023986 
L 123.157386 103.10938 
L 126.211202 106.634426 
L 129.265017 110.605916 
L 132.318833 114.987094 
L 135.372649 119.738112 
L 139.444403 126.574177 
L 143.516158 133.884538 
L 148.60585 143.516979 
L 156.749359 159.529791 
L 164.892868 175.449975 
L 169.982561 184.941838 
L 174.054315 192.108631 
L 178.126069 198.788547 
L 181.179885 203.424502 
L 184.233701 207.70157 
L 187.287517 211.589029 
L 190.341332 215.059901 
L 193.395148 218.091155 
L 195.431025 219.858245 
L 197.466902 221.416893 
L 199.50278 222.763393 
L 201.538657 223.894896 
L 203.574534 224.809423 
L 205.610411 225.505864 
L 207.646288 225.983978 
L 209.682165 226.244388 
L 211.718043 226.288574 
L 213.75392 226.118859 
L 215.789797 225.738398 
L 217.825674 225.151158 
L 219.861551 224.361896 
L 221.897428 223.376139 
L 223.933306 222.20015 
L 225.969183 220.840905 
L 229.022999 218.475347 
L 232.076814 215.743325 
L 235.13063 212.67629 
L 238.184446 209.308337 
L 242.2562 204.412845 
L 246.327954 199.138846 
L 251.417647 192.16081 
L 261.597033 177.659261 
L 267.704665 169.13185 
L 272.794358 162.4123 
L 276.866112 157.413458 
L 280.937866 152.83607 
L 283.991682 149.722715 
L 287.045498 146.913177 
L 290.099314 144.430831 
L 293.153129 142.295674 
L 296.206945 140.524167 
L 298.242822 139.55167 
L 300.278699 138.749442 
L 302.314577 138.119611 
L 304.350454 137.663556 
L 306.386331 137.381907 
L 308.422208 137.274541 
L 310.458085 137.340596 
L 312.493962 137.578472 
L 314.52984 137.985848 
L 316.565717 138.559693 
L 318.601594 139.296285 
L 321.65541 140.696532 
L 324.709225 142.435385 
L 327.763041 144.492222 
L 330.816857 146.84357 
L 333.870673 149.463348 
L 337.942427 153.324535 
L 342.014181 157.53934 
L 347.103874 163.185974 
L 353.211506 170.304338 
L 353.211506 170.304338 
" clip-path="url(#pd6f7aef6cd)" style="fill: none; stroke-dasharray: 1.5,2.475; stroke-dashoffset: 0; stroke: #000000; stroke-width: 1.5"/>
   </g>
   <g id="patch_3">
    <path d="M 33.629688 244.51125 
L 33.629688 22.75125 
" style="fill: none; stroke: #000000; stroke-width: 0.8; stroke-linejoin: miter; stroke-linecap: square"/>
   </g>
   <g id="patch_4">
    <path d="M 368.429688 244.51125 
L 368.429688 22.75125 
" style="fill: none; stroke: #000000; stroke-width: 0.8; stroke-linejoin: miter; stroke-linecap: square"/>
   </g>
   <g id="patch_5">
    <path d="M 33.629688 244.51125 
L 368.429688 244.51125 
" style="fill: none; stroke: #000000; stroke-width: 0.8; stroke-linejoin: miter; stroke-linecap: square"/>
   </g>
   <g id="patch_6">
    <path d="M 33.629688 22.75125 
L 368.429688 22.75125 
" style="fill: none; stroke: #000000; stroke-width: 0.8; stroke-linejoin: miter; stroke-linecap: square"/>
   </g>
   <g id="text_15">
    <!-- 第一类贝塞尔函数 -->
    <g transform="translate(153.029688 16.75125) scale(0.12 -0.12)">
     <defs>
      <path id="SourceHanSansSC-Regular-7b2c" d="M 1075 2566 
C 1024 2106 928 1536 838 1152 
L 2547 1152 
C 2016 595 1203 109 448 -141 
C 557 -230 691 -403 762 -518 
C 1523 -218 2362 326 2925 966 
L 2925 -512 
L 3398 -512 
L 3398 1152 
L 5254 1152 
C 5190 570 5120 320 5030 230 
C 4979 186 4915 179 4800 179 
C 4685 173 4384 179 4070 211 
C 4141 90 4198 -96 4205 -230 
C 4538 -250 4851 -250 5011 -237 
C 5197 -224 5312 -186 5421 -77 
C 5587 83 5670 474 5760 1370 
C 5766 1434 5773 1562 5773 1562 
L 3398 1562 
L 3398 2157 
L 5555 2157 
L 5555 3571 
L 838 3571 
L 838 3162 
L 2925 3162 
L 2925 2566 
L 1075 2566 
z
M 1478 2157 
L 2925 2157 
L 2925 1562 
L 1389 1562 
L 1478 2157 
z
M 3398 3162 
L 5088 3162 
L 5088 2566 
L 3398 2566 
L 3398 3162 
z
M 1357 5408 
C 1133 4794 749 4211 294 3827 
C 416 3770 608 3661 698 3590 
C 941 3821 1178 4115 1382 4454 
L 1734 4454 
C 1869 4198 1997 3885 2054 3680 
L 2477 3834 
C 2432 3994 2330 4237 2214 4454 
L 3245 4454 
L 3245 4826 
L 1594 4826 
C 1670 4979 1741 5139 1798 5299 
L 1357 5408 
z
M 3827 5408 
C 3661 4819 3360 4256 2970 3885 
C 3091 3827 3296 3706 3392 3635 
C 3590 3853 3782 4134 3949 4454 
L 4384 4454 
C 4595 4205 4794 3885 4883 3674 
L 5299 3853 
C 5222 4019 5075 4250 4909 4454 
L 6061 4454 
L 6061 4826 
L 4122 4826 
C 4186 4979 4243 5139 4288 5299 
L 3827 5408 
z
" transform="scale(0.015625)"/>
      <path id="SourceHanSansSC-Regular-4e00" d="M 282 2758 
L 282 2234 
L 6144 2234 
L 6144 2758 
L 282 2758 
z
" transform="scale(0.015625)"/>
      <path id="SourceHanSansSC-Regular-7c7b" d="M 4774 5261 
C 4621 4992 4346 4602 4128 4352 
L 4518 4205 
C 4749 4435 5037 4774 5274 5101 
L 4774 5261 
z
M 1158 5050 
C 1427 4787 1715 4410 1837 4160 
L 2266 4371 
C 2138 4621 1837 4986 1562 5235 
L 1158 5050 
z
M 2944 5370 
L 2944 4128 
L 461 4128 
L 461 3686 
L 2560 3686 
C 2035 3149 1184 2701 339 2502 
C 442 2406 576 2227 646 2106 
C 1517 2362 2381 2867 2944 3501 
L 2944 2426 
L 3424 2426 
L 3424 3386 
C 4237 2982 5197 2458 5709 2125 
L 5946 2522 
C 5434 2829 4518 3302 3725 3686 
L 5971 3686 
L 5971 4128 
L 3424 4128 
L 3424 5370 
L 2944 5370 
z
M 2963 2285 
C 2931 2035 2893 1805 2835 1594 
L 429 1594 
L 429 1146 
L 2662 1146 
C 2342 544 1696 147 294 -70 
C 384 -179 506 -384 544 -512 
C 2138 -230 2848 301 3187 1101 
C 3686 198 4570 -314 5862 -512 
C 5920 -378 6054 -173 6163 -64 
C 4998 70 4141 474 3674 1146 
L 5990 1146 
L 5990 1594 
L 3347 1594 
C 3398 1811 3437 2042 3469 2285 
L 2963 2285 
z
" transform="scale(0.015625)"/>
      <path id="SourceHanSansSC-Regular-8d1d" d="M 2963 4128 
L 2963 2758 
C 2963 1824 2803 678 358 -115 
C 474 -211 621 -403 678 -506 
C 3187 371 3462 1664 3462 2758 
L 3462 4128 
L 2963 4128 
z
M 3392 685 
C 4141 365 5101 -147 5574 -486 
L 5869 -102 
C 5363 243 4390 717 3661 1018 
L 3392 685 
z
M 1133 5037 
L 1133 1254 
L 1619 1254 
L 1619 4595 
L 4794 4595 
L 4794 1267 
L 5293 1267 
L 5293 5037 
L 1133 5037 
z
" transform="scale(0.015625)"/>
      <path id="SourceHanSansSC-Regular-585e" d="M 704 45 
L 704 -358 
L 5741 -358 
L 5741 45 
L 3437 45 
L 3437 678 
L 4710 678 
L 4710 1062 
L 3437 1062 
L 3437 1594 
L 2976 1594 
L 2976 1062 
L 1722 1062 
L 1722 678 
L 2976 678 
L 2976 45 
L 704 45 
z
M 2816 5318 
C 2893 5184 2982 5024 3059 4877 
L 474 4877 
L 474 3782 
L 941 3782 
L 941 4461 
L 5453 4461 
L 5453 3782 
L 5939 3782 
L 5939 4877 
L 3635 4877 
C 3552 5050 3424 5261 3315 5421 
L 2816 5318 
z
M 384 2214 
L 384 1798 
L 1914 1798 
C 1504 1370 870 998 262 813 
C 365 717 506 557 576 442 
C 1280 691 2022 1216 2451 1798 
L 3949 1798 
C 4390 1235 5133 723 5850 486 
C 5926 602 6067 781 6170 877 
C 5549 1043 4909 1389 4499 1798 
L 6048 1798 
L 6048 2214 
L 4371 2214 
L 4371 2682 
L 5280 2682 
L 5280 3034 
L 4371 3034 
L 4371 3475 
L 5370 3475 
L 5370 3840 
L 4371 3840 
L 4371 4237 
L 3904 4237 
L 3904 3840 
L 2522 3840 
L 2522 4237 
L 2061 4237 
L 2061 3840 
L 1018 3840 
L 1018 3475 
L 2061 3475 
L 2061 3034 
L 1120 3034 
L 1120 2682 
L 2061 2682 
L 2061 2214 
L 384 2214 
z
M 2522 3475 
L 3904 3475 
L 3904 3034 
L 2522 3034 
L 2522 3475 
z
M 2522 2682 
L 3904 2682 
L 3904 2214 
L 2522 2214 
L 2522 2682 
z
" transform="scale(0.015625)"/>
      <path id="SourceHanSansSC-Regular-5c14" d="M 1677 2662 
C 1382 1926 883 1203 339 742 
C 461 666 672 512 768 429 
C 1306 941 1837 1715 2182 2528 
L 1677 2662 
z
M 4301 2432 
C 4787 1805 5350 954 5587 429 
L 6054 659 
C 5798 1190 5222 2016 4730 2630 
L 4301 2432 
z
M 1888 5382 
C 1517 4410 902 3456 224 2854 
C 358 2790 589 2630 685 2541 
C 1024 2880 1357 3309 1658 3789 
L 3002 3789 
L 3002 122 
C 3002 13 2963 -19 2848 -19 
C 2720 -26 2304 -32 1869 -13 
C 1946 -160 2022 -371 2048 -512 
C 2611 -512 2982 -506 3200 -422 
C 3424 -346 3501 -198 3501 115 
L 3501 3789 
L 5395 3789 
C 5235 3430 5037 3066 4851 2816 
L 5274 2656 
C 5562 3027 5869 3622 6086 4154 
L 5722 4288 
L 5638 4262 
L 1933 4262 
C 2106 4576 2266 4909 2400 5242 
L 1888 5382 
z
" transform="scale(0.015625)"/>
      <path id="SourceHanSansSC-Regular-51fd" d="M 1338 3430 
C 1658 3142 2029 2726 2208 2458 
L 2528 2758 
C 2349 3008 1984 3398 1645 3680 
L 1338 3430 
z
M 557 3942 
L 557 -166 
L 5376 -166 
L 5376 -512 
L 5856 -512 
L 5856 3955 
L 5376 3955 
L 5376 282 
L 1037 282 
L 1037 3942 
L 557 3942 
z
M 2970 3885 
L 2970 2541 
C 2310 2125 1638 1690 1197 1434 
L 1434 1037 
C 1875 1338 2426 1722 2970 2106 
L 2970 1088 
C 2970 1011 2944 986 2861 986 
C 2771 979 2483 979 2176 992 
C 2240 864 2304 685 2323 557 
C 2746 557 3040 563 3213 634 
C 3392 704 3443 832 3443 1082 
L 3443 2304 
C 3974 1856 4525 1318 4826 960 
L 5126 1293 
C 4883 1574 4474 1958 4038 2330 
C 4378 2669 4768 3123 5088 3526 
L 4685 3738 
C 4461 3386 4083 2912 3757 2566 
L 3443 2816 
L 3443 3693 
C 4045 4000 4704 4448 5158 4877 
L 4832 5126 
L 4730 5101 
L 1165 5101 
L 1165 4659 
L 4224 4659 
C 3859 4371 3386 4077 2970 3885 
z
" transform="scale(0.015625)"/>
      <path id="SourceHanSansSC-Regular-6570" d="M 2835 5254 
C 2720 5005 2515 4627 2355 4403 
L 2669 4250 
C 2835 4461 3053 4781 3238 5075 
L 2835 5254 
z
M 563 5075 
C 730 4806 902 4454 960 4230 
L 1325 4390 
C 1267 4621 1094 4966 915 5216 
L 563 5075 
z
M 2624 1664 
C 2477 1331 2272 1050 2029 806 
C 1786 928 1536 1050 1299 1152 
C 1389 1306 1491 1478 1581 1664 
L 2624 1664 
z
M 704 979 
C 1018 858 1370 698 1690 531 
C 1280 237 787 32 262 -90 
C 346 -179 448 -346 493 -461 
C 1082 -301 1626 -51 2086 320 
C 2298 192 2490 70 2637 -38 
L 2944 275 
C 2797 378 2611 493 2400 608 
C 2739 973 3008 1421 3168 1978 
L 2906 2086 
L 2829 2067 
L 1779 2067 
L 1920 2400 
L 1491 2477 
C 1446 2349 1382 2208 1318 2067 
L 448 2067 
L 448 1664 
L 1120 1664 
C 986 1408 838 1171 704 979 
z
M 1645 5382 
L 1645 4186 
L 320 4186 
L 320 3789 
L 1498 3789 
C 1190 3373 698 2976 250 2784 
C 346 2694 454 2528 512 2419 
C 902 2630 1325 2989 1645 3366 
L 1645 2586 
L 2093 2586 
L 2093 3456 
C 2400 3232 2790 2931 2950 2784 
L 3219 3130 
C 3066 3238 2502 3597 2189 3789 
L 3398 3789 
L 3398 4186 
L 2093 4186 
L 2093 5382 
L 1645 5382 
z
M 4026 5325 
C 3866 4198 3578 3123 3078 2451 
C 3181 2387 3366 2234 3443 2157 
C 3610 2394 3750 2675 3878 2989 
C 4019 2362 4205 1779 4442 1274 
C 4083 666 3584 198 2886 -141 
C 2976 -237 3110 -429 3155 -531 
C 3808 -179 4301 262 4678 826 
C 4998 282 5395 -154 5894 -454 
C 5971 -333 6112 -166 6221 -77 
C 5683 211 5261 678 4934 1267 
C 5274 1926 5491 2726 5632 3686 
L 6067 3686 
L 6067 4134 
L 4243 4134 
C 4333 4493 4410 4870 4467 5254 
L 4026 5325 
z
M 5178 3686 
C 5075 2950 4922 2310 4691 1766 
C 4448 2342 4269 2995 4147 3686 
L 5178 3686 
z
" transform="scale(0.015625)"/>
     </defs>
     <use xlink:href="#SourceHanSansSC-Regular-7b2c"/>
     <use xlink:href="#SourceHanSansSC-Regular-4e00" x="99.999985"/>
     <use xlink:href="#SourceHanSansSC-Regular-7c7b" x="199.999969"/>
     <use xlink:href="#SourceHanSansSC-Regular-8d1d" x="299.999954"/>
     <use xlink:href="#SourceHanSansSC-Regular-585e" x="399.999939"/>
     <use xlink:href="#SourceHanSansSC-Regular-5c14" x="499.999924"/>
     <use xlink:href="#SourceHanSansSC-Regular-51fd" x="599.999908"/>
     <use xlink:href="#SourceHanSansSC-Regular-6570" x="699.999893"/>
    </g>
   </g>
   <g id="legend_1">
    <g id="patch_7">
     <path d="M 309.429688 61.25125 
L 361.429688 61.25125 
Q 363.429688 61.25125 363.429688 59.25125 
L 363.429688 29.75125 
Q 363.429688 27.75125 361.429688 27.75125 
L 309.429688 27.75125 
Q 307.429688 27.75125 307.429688 29.75125 
L 307.429688 59.25125 
Q 307.429688 61.25125 309.429688 61.25125 
z
" style="fill: #ffffff; opacity: 0.8; stroke: #cccccc; stroke-linejoin: miter"/>
    </g>
    <g id="line2d_31">
     <path d="M 311.429688 36.210625 
L 321.429688 36.210625 
L 331.429688 36.210625 
" style="fill: none; stroke-dasharray: 9.6,2.4,1.5,2.4; stroke-dashoffset: 0; stroke: #000000; stroke-width: 1.5"/>
    </g>
    <g id="text_16">
     <!-- 零阶 -->
     <g transform="translate(339.429688 39.710625) scale(0.1 -0.1)">
      <defs>
       <path id="SourceHanSansSC-Regular-96f6" d="M 1235 3718 
L 1235 3418 
L 2624 3418 
L 2624 3718 
L 1235 3718 
z
M 1094 3078 
L 1094 2765 
L 2630 2765 
L 2630 3078 
L 1094 3078 
z
M 3738 3078 
L 3738 2765 
L 5318 2765 
L 5318 3078 
L 3738 3078 
z
M 3738 3718 
L 3738 3418 
L 5158 3418 
L 5158 3718 
L 3738 3718 
z
M 486 4390 
L 486 3270 
L 922 3270 
L 922 4058 
L 2944 4058 
L 2944 3066 
L 3418 3066 
L 3418 4058 
L 5472 4058 
L 5472 3270 
L 5920 3270 
L 5920 4390 
L 3418 4390 
L 3418 4755 
L 5536 4755 
L 5536 5120 
L 858 5120 
L 858 4755 
L 2944 4755 
L 2944 4390 
L 486 4390 
z
M 2752 1907 
C 2944 1754 3168 1542 3290 1382 
L 1094 1382 
L 1094 1018 
L 4589 1018 
C 4218 755 3712 480 3296 307 
C 2867 454 2419 589 2035 685 
L 1830 378 
C 2688 141 3802 -269 4371 -563 
L 4582 -205 
C 4378 -102 4115 6 3821 122 
C 4365 397 5005 800 5376 1190 
L 5069 1408 
L 4998 1382 
L 3379 1382 
L 3635 1574 
C 3507 1734 3264 1965 3053 2112 
L 2752 1907 
z
M 3296 2912 
C 2605 2394 1318 1946 224 1715 
C 326 1613 435 1466 493 1357 
C 1376 1568 2368 1914 3123 2342 
C 3853 1952 5056 1562 5920 1389 
C 5984 1498 6118 1677 6214 1773 
C 5344 1920 4160 2234 3482 2560 
L 3661 2688 
L 3296 2912 
z
" transform="scale(0.015625)"/>
       <path id="SourceHanSansSC-Regular-9636" d="M 4736 2893 
L 4736 -493 
L 5203 -493 
L 5203 2893 
L 4736 2893 
z
M 3194 2886 
L 3194 1939 
C 3194 1203 3104 390 2310 -256 
C 2445 -320 2643 -442 2746 -538 
C 3571 173 3654 1088 3654 1933 
L 3654 2886 
L 3194 2886 
z
M 4006 5408 
C 3776 4640 3226 3725 2278 3110 
C 2387 3027 2528 2854 2598 2746 
C 3328 3251 3840 3904 4179 4570 
C 4621 3853 5248 3206 5869 2835 
C 5946 2957 6093 3123 6202 3219 
C 5504 3571 4794 4294 4403 5050 
L 4506 5331 
L 4006 5408 
z
M 512 5114 
L 512 -518 
L 986 -518 
L 986 4659 
L 1869 4659 
C 1696 4230 1466 3680 1242 3226 
C 1818 2720 1971 2291 1978 1933 
C 1978 1734 1933 1568 1818 1498 
C 1754 1453 1664 1440 1574 1434 
C 1453 1427 1299 1427 1126 1446 
C 1203 1312 1254 1126 1261 1005 
C 1427 992 1619 992 1766 1011 
C 1907 1030 2035 1062 2138 1133 
C 2342 1274 2432 1542 2432 1894 
C 2432 2298 2304 2758 1728 3290 
C 1984 3789 2272 4397 2496 4922 
L 2163 5133 
L 2093 5114 
L 512 5114 
z
" transform="scale(0.015625)"/>
      </defs>
      <use xlink:href="#SourceHanSansSC-Regular-96f6"/>
      <use xlink:href="#SourceHanSansSC-Regular-9636" x="99.999985"/>
     </g>
    </g>
    <g id="line2d_32">
     <path d="M 311.429688 51.460625 
L 321.429688 51.460625 
L 331.429688 51.460625 
" style="fill: none; stroke-dasharray: 1.5,2.475; stroke-dashoffset: 0; stroke: #000000; stroke-width: 1.5"/>
    </g>
    <g id="text_17">
     <!-- 一阶 -->
     <g transform="translate(339.429688 54.960625) scale(0.1 -0.1)">
      <use xlink:href="#SourceHanSansSC-Regular-4e00"/>
      <use xlink:href="#SourceHanSansSC-Regular-9636" x="99.999985"/>
     </g>
    </g>
   </g>
  </g>
 </g>
 <defs>
  <clipPath id="pd6f7aef6cd">
   <rect x="33.629688" y="22.75125" width="334.8" height="221.76"/>
  </clipPath>
 </defs>
</svg>
